HIERARCHY
ROOT Hips
{
	OFFSET 0.00000 0.00000 0.00000
	CHANNELS 6 Xposition Yposition Zposition Zrotation Yrotation Xrotation 
	JOINT LHipJoint
	{
		OFFSET 0 0 0
		CHANNELS 3 Zrotation Yrotation Xrotation
		JOINT LeftHip
		{
			OFFSET 1.37590 -1.78394 0.89329
			CHANNELS 3 Zrotation Yrotation Xrotation
			JOINT LeftKnee
			{
				OFFSET 2.47928 -6.81178 0.00000
				CHANNELS 3 Zrotation Yrotation Xrotation
				JOINT LeftAnkle
				{
					OFFSET 2.63345 -7.23535 0.00000
					CHANNELS 3 Zrotation Yrotation Xrotation
					JOINT LeftToe
					{
						OFFSET 0.23938 -0.65768 2.27012
						CHANNELS 3 Zrotation Yrotation Xrotation
						End Site
						{
							OFFSET 0.00000 -0.00000 1.18363
						}
					}
				}
			}
		}
	}
	JOINT RHipJoint
	{
		OFFSET 0 0 0
		CHANNELS 3 Zrotation Yrotation Xrotation
		JOINT RightHip
		{
			OFFSET -1.33617 -1.78394 0.89329
			CHANNELS 3 Zrotation Yrotation Xrotation
			JOINT RightKnee
			{
				OFFSET -2.56922 -7.05888 0.00000
				CHANNELS 3 Zrotation Yrotation Xrotation
				JOINT RightAnkle
				{
					OFFSET -2.56568 -7.04915 0.00000
					CHANNELS 3 Zrotation Yrotation Xrotation
					JOINT RightToe
					{
						OFFSET -0.27533 -0.75646 2.18105
						CHANNELS 3 Zrotation Yrotation Xrotation
						End Site
						{
							OFFSET -0.00000 -0.00000 1.15233
						}
					}
				}
			}
		}
	}
	JOINT lowerback
	{
		OFFSET 0 0 0
		CHANNELS 3 Zrotation Yrotation Xrotation
		JOINT Chest
		{
			OFFSET 0.06190 2.15152 -0.00935
			CHANNELS 3 Zrotation Yrotation Xrotation
			JOINT Chest2
			{
				OFFSET 0.06334 2.15332 0.00872
				CHANNELS 3 Zrotation Yrotation Xrotation
				JOINT lowerneck
				{
					OFFSET 0 0 0
					CHANNELS 3 Zrotation Yrotation Xrotation
					JOINT Neck
					{
						OFFSET -0.04202 1.66908 0.23524
						CHANNELS 3 Zrotation Yrotation Xrotation
						JOINT Head
						{
							OFFSET 0.07510 1.69357 -0.24440
							CHANNELS 3 Zrotation Yrotation Xrotation
							End Site
							{
								OFFSET 0.02556 1.71719 -0.11000
							}
						}
					}
				}
				JOINT LeftCollar
				{
					OFFSET 0 0 0
					CHANNELS 3 Zrotation Yrotation Xrotation
					JOINT LeftShoulder
					{
						OFFSET 3.67168 1.26306 -0.41342
CHANNELS 3 Zrotation Xrotation Yrotation
						JOINT LeftElbow
						{
OFFSET 0 -4.685100 -0.000000
CHANNELS 3 Zrotation Xrotation Yrotation
							JOINT LeftWrist
							{
OFFSET 0 -3.396260 -0.000000
CHANNELS 3 Zrotation Xrotation Yrotation
								JOINT lhand
								{
									OFFSET 0 0 0
CHANNELS 3 Zrotation Xrotation Yrotation
									JOINT LFingers
									{
OFFSET 0 -0.486080 -0.000000
CHANNELS 3 Zrotation Xrotation Yrotation
										End Site
										{
OFFSET 0 -0.391890 -0.000000
										}
									}
								}
								JOINT LThumb
								{
OFFSET 0 0.000000 0.000000
CHANNELS 3 Zrotation Xrotation Yrotation
									End Site
									{
OFFSET 0 -0.397870 0.397870
									}
								}
							}
						}
					}
				}
				JOINT RightCollar
				{
					OFFSET 0 0 0
					CHANNELS 3 Zrotation Yrotation Xrotation
					JOINT RightShoulder
					{
						OFFSET -3.04136 1.42992 -0.76390
CHANNELS 3 Zrotation Xrotation Yrotation
						JOINT RightElbow
						{
OFFSET 0 -5.555760 -0.000000
CHANNELS 3 Zrotation Xrotation Yrotation
							JOINT RightWrist
							{
OFFSET 0 -3.327740 -0.000000
CHANNELS 3 Zrotation Xrotation Yrotation
								JOINT rhand
								{
									OFFSET 0 0 0
CHANNELS 3 Zrotation Xrotation Yrotation
									JOINT RFingers
									{
OFFSET 0 -0.507630 -0.000000
CHANNELS 3 Zrotation Xrotation Yrotation
										End Site
										{
OFFSET 0 -0.409260 -0.000000
										}
									}
								}
								JOINT RThumb
								{
OFFSET 0 0.000000 0.000000
CHANNELS 3 Zrotation Xrotation Yrotation
									End Site
									{
OFFSET 0 -0.415510 0.415510
									}
								}
							}
						}
					}
				}
			}
		}
	}
}
MOTION
Frames: 8
Frame Time: 0.008333333333333333
-17.113853 17.649125 5.332262 -132.467312 -77.702188 138.823539 0.000000 0.000000 0.000000 0.080911 -14.125243 -27.258005 1.032775 6.464025 18.136769 -0.069079 4.919324 -3.480588 0.288520 -3.453891 -9.545047 0.000000 0.000000 0.000000 32.501332 1.082747 -0.999129 -2.826662 -10.408312 30.309944 -0.528121 -9.817051 -20.614076 -0.032002 1.154384 -3.173676 5.584828 -0.174522 0.347028 1.730565 -0.108445 -4.440283 -1.323076 -0.285539 -4.803542 -13.949128 -13.121776 -11.165340 13.396172 -17.578958 10.553572 4.506568 -8.209988 7.507220 0.000000 0.000000 0.000000 19.034310 9.167758 6.117800 18.162358 -28.364561 4.626121 8.725734 20.904529 -27.572636 0.000000 0.000000 0.000000 -7.125000 0.000000 0.000000 -23.386854 56.253589 6.712675 0.000000 0.000000 0.000000 -87.194202 -40.124289 -48.994829 -88.607473 -59.984038 -58.794157 -45.433286 73.563836 55.918056 0.000000 0.000000 0.000000 7.125000 0.000000 0.000000 154.043008 -84.917656 156.205158
-17.344837 17.648743 5.350164 -135.513523 -77.479499 141.768038 0.000000 0.000000 0.000000 -0.546734 -13.730313 -26.766385 1.043425 6.496234 18.231244 -0.073486 4.995282 -3.283546 0.257245 -3.262602 -9.010737 0.000000 0.000000 0.000000 31.807444 0.897512 -1.210273 -3.080991 -10.823882 31.689472 -0.418974 -10.156719 -19.825975 -0.035582 1.218208 -3.349464 5.394860 0.011005 0.168333 1.599621 0.117806 -4.442340 -1.363744 -0.165072 -4.687285 -14.187339 -13.202022 -10.911883 13.500293 -17.687196 10.429952 4.571822 -8.276670 7.471443 0.000000 0.000000 0.000000 18.800486 8.972031 5.983622 18.155795 -28.356217 4.622982 8.789239 20.916007 -27.380929 0.000000 0.000000 0.000000 -7.125000 0.000000 0.000000 -23.194489 56.091305 6.560106 0.000000 0.000000 0.000000 -84.181952 -40.271960 -44.394166 -83.458775 -59.829717 -54.338668 -37.027431 64.508464 55.148621 0.000000 0.000000 0.000000 7.125000 0.000000 0.000000 101.947980 -34.014537 56.120254
-17.575276 17.650979 5.367505 -138.316885 -77.281729 144.450187 0.000000 0.000000 0.000000 -1.243651 -13.302420 -26.247628 1.064180 6.558388 18.413529 -0.074936 5.002170 -3.132672 0.227225 -3.068010 -8.468140 0.000000 0.000000 0.000000 31.088878 0.696408 -1.549086 -3.369964 -11.270445 33.198339 -0.295854 -10.595383 -18.947997 -0.034908 1.206374 -3.316756 5.177831 0.171805 0.008071 1.474018 0.312656 -4.434218 -1.381094 -0.058842 -4.573560 -14.421504 -13.277375 -10.665270 13.599675 -17.786771 10.294672 4.636133 -8.339121 7.431395 0.000000 0.000000 0.000000 18.523290 8.751316 5.747370 18.162914 -28.365293 4.626339 8.860527 20.938943 -27.158293 0.000000 0.000000 0.000000 -7.125000 0.000000 0.000000 -22.975352 55.901739 6.385528 0.000000 0.000000 0.000000 -80.915825 -40.223483 -39.521564 -78.910857 -59.525887 -50.412065 -29.432274 56.272556 53.400548 0.000000 0.000000 0.000000 7.125000 0.000000 0.000000 67.981736 82.911880 -61.276350
-17.805006 17.656153 5.383869 -140.865484 -77.120768 146.862551 0.000000 0.000000 0.000000 -1.998543 -12.858943 -25.692828 1.091625 6.639823 18.652693 -0.074187 4.954459 -3.006692 0.199814 -2.877811 -7.938874 0.000000 0.000000 0.000000 30.353748 0.477257 -2.024887 -3.695290 -11.741984 34.827313 -0.160393 -11.133902 -17.983703 -0.030185 1.120362 -3.079961 4.935259 0.305436 -0.132516 1.355841 0.473233 -4.416428 -1.374092 0.031583 -4.463843 -14.648815 -13.348366 -10.430421 13.692573 -17.877748 10.147476 4.698399 -8.397198 7.387357 0.000000 0.000000 0.000000 18.202210 8.512400 5.396119 18.187965 -28.397206 4.638307 8.939472 20.967450 -26.896260 0.000000 0.000000 0.000000 -7.125000 0.000000 0.000000 -22.725366 55.677014 6.184463 0.000000 0.000000 0.000000 -77.415428 -39.939655 -34.439507 -75.084602 -59.137495 -47.120738 -23.485889 49.711254 51.028536 0.000000 0.000000 0.000000 7.125000 0.000000 0.000000 52.998646 79.641938 -44.243104
-18.033734 17.664096 5.399233 -143.191491 -76.999026 149.042985 0.000000 0.000000 0.000000 -2.791686 -12.415074 -25.100364 1.122304 6.729471 18.916322 -0.072042 4.870927 -2.906791 0.174707 -2.692273 -7.423184 0.000000 0.000000 0.000000 29.612263 0.242450 -2.625787 -4.052706 -12.229695 36.550262 -0.016879 -11.754297 -16.954876 -0.022578 0.970289 -2.666959 4.671920 0.414043 -0.257910 1.246076 0.602081 -4.389772 -1.344862 0.107277 -4.356258 -14.866851 -13.415595 -10.210129 13.777734 -17.960846 9.989297 4.757502 -8.450883 7.339831 0.000000 0.000000 0.000000 17.842515 8.263284 4.936643 18.233054 -28.454557 4.659702 9.023816 20.999142 -26.603936 0.000000 0.000000 0.000000 -7.125000 0.000000 0.000000 -22.453482 55.424800 5.964401 0.000000 0.000000 0.000000 -73.737286 -39.425008 -29.238082 -71.918189 -58.726495 -44.407779 -19.167564 44.781074 48.461257 0.000000 0.000000 0.000000 7.125000 0.000000 0.000000 45.243353 76.535352 -34.803590
-18.260993 17.675024 5.413003 -145.284294 -76.927664 150.984000 0.000000 0.000000 0.000000 -3.612571 -11.989478 -24.459160 1.152890 6.817218 19.174902 -0.068537 4.755694 -2.847362 0.152515 -2.515856 -6.933621 0.000000 0.000000 0.000000 28.872442 -0.009144 -3.366310 -4.443806 -12.726920 38.357387 0.130686 -12.446844 -15.881537 -0.013705 0.751174 -2.064399 4.386731 0.493952 -0.364042 1.148211 0.694781 -4.356654 -1.289203 0.165765 -4.256060 -15.073422 -13.478239 -10.005286 13.850620 -18.034155 9.821603 4.811902 -8.499522 7.288398 0.000000 0.000000 0.000000 17.441112 8.017369 4.350684 18.306347 -28.547637 4.694714 9.102792 21.018287 -26.289459 0.000000 0.000000 0.000000 -7.125000 0.000000 0.000000 -22.176805 55.150292 5.734591 0.000000 0.000000 0.000000 -69.906131 -38.635395 -23.981760 -69.430932 -58.337018 -42.286375 -16.417450 41.402800 45.998651 0.000000 0.000000 0.000000 7.125000 0.000000 0.000000 40.451446 73.900079 -28.801010
-18.486849 17.688448 5.425271 -147.194733 -76.902342 152.742386 0.000000 0.000000 0.000000 -4.447398 -11.587201 -23.774464 1.180610 6.896075 19.407959 -0.064052 4.612243 -2.829773 0.132807 -2.348488 -6.469755 0.000000 0.000000 0.000000 28.139933 -0.272410 -4.221396 -4.860209 -13.224499 40.215093 0.277412 -13.179648 -14.796201 -0.005485 0.478410 -1.314449 4.084631 0.550254 -0.454553 1.061410 0.757404 -4.319417 -1.211410 0.209763 -4.163097 -15.272350 -13.535397 -9.811980 13.918169 -18.097542 9.643677 4.864724 -8.542846 7.233216 0.000000 0.000000 0.000000 17.006811 7.783603 3.656340 18.406436 -28.674526 4.742642 9.170319 21.019543 -25.952825 0.000000 0.000000 0.000000 -7.125000 0.000000 0.000000 -21.901568 54.852214 5.495819 0.000000 0.000000 0.000000 -65.982268 -37.602107 -18.744003 -67.441161 -57.986884 -40.595584 -14.715973 39.063423 43.769306 0.000000 0.000000 0.000000 7.125000 0.000000 0.000000 36.840895 71.706534 -24.379119
-18.710740 17.704511 5.435467 -148.905023 -76.933272 154.301661 0.000000 0.000000 0.000000 -5.286513 -11.217898 -23.035637 1.201923 6.955822 19.584495 -0.058375 4.436862 -2.860224 0.115345 -2.189257 -6.029076 0.000000 0.000000 0.000000 27.424378 -0.544085 -5.206496 -5.301777 -13.714003 42.107045 0.418264 -13.933830 -13.732872 -0.000869 0.153994 -0.423152 3.765155 0.579382 -0.526706 0.989426 0.785788 -4.277407 -1.107612 0.237265 -4.078186 -15.458973 -13.586711 -9.636396 13.976428 -18.149691 9.456012 4.913795 -8.580030 7.174447 0.000000 0.000000 0.000000 16.537612 7.568947 2.842056 18.539643 -28.842571 4.806739 9.221453 21.000254 -25.577275 0.000000 0.000000 0.000000 -7.125000 0.000000 0.000000 -21.623985 54.514084 5.239521 0.000000 0.000000 0.000000 -61.995662 -36.275569 -13.608381 -65.918652 -57.690192 -39.306757 -13.965778 37.679553 41.904563 0.000000 0.000000 0.000000 7.125000 0.000000 0.000000 33.979869 70.030212 -21.148902
